<svg t="1680591059291" class="icon" viewBox="0 0 1024 1024" version="1.1" xmlns="http://www.w3.org/2000/svg" p-id="2990" width="200" height="200"><path d="M326.5 99.6c21.4-19.3 50.2-30.3 79.1-30.2h215.2c8.9 0.1 17.9-0.3 26.7 0.8 29.4 3.2 57.3 18.1 76.5 40.6 12 13.9 20.7 30.5 25.1 48.3 3.8 13.9 3.9 28.4 3.8 42.6H830c17.6-0.4 35.2 4.2 50.4 13 22.3 12.7 39.2 34.5 45.9 59.3 2.7 9.7 3.7 19.8 3.5 29.9v604c7.1-0.5 14.5 1.8 19.3 7.1 8.9 8.5 8.7 24.2-0.1 32.7-5.2 5.6-13.1 7.4-20.5 7-87.2 0-174.4 0.1-261.5 0V721.4c-0.4-17.4-7.8-34.6-20.1-46.9-11.2-11.5-26.5-18.8-42.4-20.4-5.5-0.6-11-0.4-16.6-0.4H469.5c-7-0.1-14.1 0.5-20.9 2.4-15.8 4.1-30.1 14.1-39.4 27.5-7.6 10.8-12 23.7-12.5 36.9v234.3H232.6c-46.7-0.1-93.4 0.2-140.1-0.2-7.4-0.3-14.4-4.4-18.4-10.6-5.4-8.3-4.8-20 1.6-27.6 4.3-5.3 11-8.4 17.7-8.5H110V300.4c0.3-21.3 7.8-42.4 21.1-59 13.8-17.5 33.8-30.1 55.7-34.8 9.1-2 18.4-2.5 27.6-2.3 24.1-0.1 48.1 0.2 72.2-0.1-0.2-12-0.4-24.2 1.7-36.1 4.6-26.3 18.3-50.9 38.2-68.5m110.6 125.2c-6.6 0.4-13 3.8-17 9.1-5.3 6.8-6.3 16.6-2.6 24.3 2.9 6.3 8.8 11.1 15.6 12.7 3.1 0.8 6.3 0.6 9.5 0.6h183.3c3.9-0.1 7.7-1.3 11.1-3.2 8.7-5.1 13.3-16.1 10.6-25.8-2.5-10.8-13.3-18.5-24.3-17.6-62-0.1-124.1-0.3-186.2-0.1m-1 125.3c-9.5 0.9-17.9 8.2-20.1 17.4-2.3 8.5 0.8 18.1 7.6 23.7 4.1 3.4 9.4 5.4 14.8 5.5h187.5c12.8-0.1 23.7-12.1 22.5-24.8-0.5-11.6-10.7-21.7-22.4-21.8-63.3 0-126.6-0.2-189.9 0m0.1 125.3c-9.6 0.8-18.1 8.2-20.2 17.6-2.3 8.8 1.2 18.9 8.6 24.3 4.2 3.3 9.5 4.8 14.7 4.8H625c7.7 0 15.3-3.9 19.5-10.4 4.7-6.8 5.2-16.2 1.4-23.6-4-7.9-12.7-13.2-21.6-12.7-62.7 0-125.4-0.1-188.1 0m361.4 12.1c-6.4 0.7-12.6 4.1-16.4 9.5-5.7 7.6-5.9 18.6-0.7 26.5 4.1 6.5 11.6 10.5 19.3 10.6 7.8 0.1 15.5 0 23.3 0 6.6 0 13.3-2.8 17.7-7.7 7-7.5 8-19.7 2.3-28.3-4.2-6.8-12.2-11-20.1-10.7-8.4 0.2-16.9 0-25.4 0.1m-593.9 12.3c-11.2 2.8-19 14.7-17 26.1 1.3 10.7 11 19.5 21.8 19.8h25.1c8.3 0 16.4-5 20.2-12.4 5.7-10.4 2-24.6-8.2-30.7-7.4-5-16.6-3.3-25-3.6-5.7 0.2-11.4-0.7-16.9 0.8m591.8 134.3c-4.5 0.9-8.6 3.1-11.9 6.3-6.9 6.7-8.9 17.8-4.7 26.4 3.7 8.2 12.6 13.9 21.6 13.5 8.3-0.1 16.7 0 25 0 11.6-0.7 21.4-11.3 21.3-22.9 0.3-9.4-5.8-18.7-14.6-22.1-6.2-2.6-13-1.5-19.6-1.7-5.7 0.1-11.4-0.4-17.1 0.5m-591 11.7c-11.2 2.3-19.5 13.9-18 25.3 0.9 11 10.7 20.3 21.7 20.8 8.5 0.1 16.9 0 25.4 0 10.4 0 20.1-7.9 22.2-18.1 2.5-10.1-2.7-21.4-12-26-6.6-3.7-14.4-2.3-21.6-2.5-5.9 0.2-11.9-0.6-17.7 0.5M794 780.7c-8.9 2.3-15.9 10.3-17 19.3-1.6 10.1 4.3 20.7 13.7 24.6 6.6 3.1 14.1 1.6 21.1 1.9 7-0.3 14.5 1.1 21.1-1.9 9.6-4.1 15.6-15.1 13.6-25.4-1.6-10.2-10.7-18.5-20.9-19.2-6.3-0.2-12.7 0-19-0.1-4.2 0.1-8.5-0.4-12.6 0.8m-587 10.9c-12.6 1.1-22.5 14-20.3 26.5 1.2 10.1 9.8 18.6 19.9 19.8 5.5 0.6 11.1 0.2 16.6 0.3 6.5-0.1 13.5 0.7 19.6-2.1 9.4-4.1 15.2-14.8 13.4-24.9-1.4-10.6-11-19.5-21.8-19.7-9.2 0.1-18.3 0-27.4 0.1z" p-id="2991"></path><path d="M458.8 701.8c4.2-1.6 8.9-1.5 13.3-1.4h124.5c12-0.4 23.4 9.7 23.8 21.9v232.4h-177V723.1c-0.1-9.4 6.5-18.2 15.4-21.3z" p-id="2992"></path></svg>